<?xml version="1.0" encoding="UTF-8"?>
<svg width="192" height="46" fill="none" version="1.1" viewBox="0 0 192 46" xml:space="preserve" xmlns="http://www.w3.org/2000/svg"><defs><style>.cls-1{fill:#0245f5;}.cls-2{fill:#fff;}</style><style>.cls-1{fill:#0245f5;}.cls-2{fill:#fff;}</style><style>.cls-1{fill:#fff;}</style></defs><g transform="matrix(.18623 0 0 .18623 .65336 2.2469)"><path class="cls-1" d="m111.42 0a111.44 111.44 0 1 0 111.45 111.42 111.42 111.42 0 0 0-111.45-111.42zm57.87 162c-7.52 8.42-16.25 13.34-26 14.58-16.09 2-27.45-5.24-36.58-11.11-7.86-5-13.66-7.81-20.86-7.81a29.3 29.3 0 0 0-4 0.26c-4.8 0.58-9.43 2.94-13.74 6.94a48.49 48.49 0 0 0-8.11 10.34l-15.67-7.81a75.82 75.82 0 0 1 9.26-13c7.68-8.64 16.44-13.64 26-14.86 15.72-2 26.79 5.11 36.59 11.39 9.29 5.95 15.67 8.79 24.8 7.62 4.71-0.61 9.37-3 13.74-7a48.5 48.5 0 0 0 8.21-10.3l15.6 7.76a76.1 76.1 0 0 1-9.24 13zm0-46.62c-7.52 8.42-16.25 13.32-26 14.59-16.09 2-27.45-5.27-36.58-11.12-7.86-5.06-13.66-7.84-20.86-7.84a33 33 0 0 0-4 0.27c-4.8 0.61-9.4 3-13.74 6.93a49 49 0 0 0-8.11 10.34l-15.67-7.78a76.05 76.05 0 0 1 9.26-13.08c7.68-8.63 16.44-13.61 26-14.82 15.72-2 26.79 5.08 36.59 11.35 9.29 6 15.67 8.79 24.8 7.63 4.71-0.59 9.37-3 13.74-7a48 48 0 0 0 8.21-10.27l15.64 7.78a74.8 74.8 0 0 1-9.28 13.06zm0-46.64c-7.52 8.41-16.25 13.34-26 14.58-16.09 2-27.45-5.24-36.58-11.12-7.86-5-13.66-7.81-20.86-7.81a27.78 27.78 0 0 0-4 0.27c-4.8 0.61-9.4 2.94-13.74 6.93a49 49 0 0 0-8.11 10.34l-15.68-7.81a77.9 77.9 0 0 1 9.26-13.05c7.7-8.63 16.44-13.6 26-14.85 15.72-2 26.82 5.11 36.59 11.38 9.29 6 15.67 8.79 24.8 7.63 4.71-0.61 9.37-3 13.74-7a48.82 48.82 0 0 0 8.21-10.29l15.64 7.8a76.18 76.18 0 0 1-9.27 13.04z"/><path class="cls-1" d="m282.61 174.83v-108.43h47.87q11.14 0 18.89 3.18a24.81 24.81 0 0 1 11.7 9.13 25.41 25.41 0 0 1 3.93 14.29q0 9.3-4.57 15.65t-13.25 8.52l-0.31-2.95a33 33 0 0 1 12.63 5.43 26.51 26.51 0 0 1 11.25 22.35 34.24 34.24 0 0 1-2.75 14.32 27.59 27.59 0 0 1-8 10.3 35.06 35.06 0 0 1-12.32 6.2 56.68 56.68 0 0 1-15.57 2zm24.78-64.9h19.37a16.38 16.38 0 0 0 6.89-1.32 9.6 9.6 0 0 0 4.34-3.72 10.9 10.9 0 0 0 1.47-5.81 9.69 9.69 0 0 0-3.41-7.82q-3.41-2.87-10.22-2.86h-18.44zm0 42.91h23.7a17.48 17.48 0 0 0 7.36-1.4 10.82 10.82 0 0 0 4.73-4.1 12.19 12.19 0 0 0 1.7-6.59 10.06 10.06 0 0 0-1.78-6 11.24 11.24 0 0 0-5-3.79 20.6 20.6 0 0 0-7.75-1.32h-22.96z"/><path class="cls-1" d="m388.25 174.83v-114.63h24.75v114.63z"/><path class="cls-1" d="m462.45 176.54a29.24 29.24 0 0 1-15.57-3.95 25.86 25.86 0 0 1-9.88-11.39 41.72 41.72 0 0 1-3.49-17.81v-50.81h24.94v47.42a21.36 21.36 0 0 0 1.55 8.5 11.87 11.87 0 0 0 4.65 5.5 13.74 13.74 0 0 0 7.44 1.93 16 16 0 0 0 6-1.08 13.7 13.7 0 0 0 4.65-3 14.2 14.2 0 0 0 3-4.49 14.42 14.42 0 0 0 1.08-5.66v-49.12h24.94v82.25h-23.44l-1.08-16.83 4.64-1.86a26.67 26.67 0 0 1-6.19 10.45 32.35 32.35 0 0 1-10.38 7.28 31 31 0 0 1-12.86 2.67z"/><path class="cls-1" d="m573.05 176.38q-13.63 0-23.7-5.5a39.76 39.76 0 0 1-15.64-15 42.27 42.27 0 0 1-5.58-21.77 47 47 0 0 1 3.1-17.35 41.37 41.37 0 0 1 8.67-13.76 38.64 38.64 0 0 1 13.25-9 43.42 43.42 0 0 1 16.85-3.13 39.88 39.88 0 0 1 15.83 3.13 37.19 37.19 0 0 1 12.47 8.68 38 38 0 0 1 8.06 13.16 43.45 43.45 0 0 1 2.47 16.58l-0.15 6.66h-65.52l-3.57-13.94h48.95l-2.63 2.94v-3.08a13.87 13.87 0 0 0-2.4-6.89 14.42 14.42 0 0 0-5.5-4.72 17.08 17.08 0 0 0-7.75-1.71 20.7 20.7 0 0 0-10.26 2.32 15.38 15.38 0 0 0-6.43 7 26.18 26.18 0 0 0-2.17 11.23 23.53 23.53 0 0 0 2.87 11.85 19.48 19.48 0 0 0 8.37 7.83 28.68 28.68 0 0 0 13.08 2.78 26.32 26.32 0 0 0 9.38-1.55 35.25 35.25 0 0 0 8.9-5.26l11.62 16.42a46.2 46.2 0 0 1-10.22 6.81 52.06 52.06 0 0 1-11.08 3.95 49.25 49.25 0 0 1-11.27 1.32z"/><path class="cls-1" d="m627.27 174.83v-108.43h23.54l39.5 64.28-16.88-0.15 40-64.13h22.57v108.43h-25.55v-33.77q0-13.93 0.7-25.09t2.4-22.15l2.94 8.05-30 46.63h-10.27l-29.44-46.32 3-8.36q1.69 10.38 2.4 21.3t0.7 25.94v33.77z"/><path class="cls-1" d="m799.36 176.38a46.07 46.07 0 0 1-22.85-5.58 42.46 42.46 0 0 1 0-74.35 49.58 49.58 0 0 1 45.7 0 41.54 41.54 0 0 1 15.72 15.18 42.13 42.13 0 0 1 5.73 22 42.07 42.07 0 0 1-5.73 22 41.39 41.39 0 0 1-15.72 15.18 46.07 46.07 0 0 1-22.85 5.57zm0-21.38a18 18 0 0 0 9.92-2.78 19.48 19.48 0 0 0 6.81-7.59 22.45 22.45 0 0 0 2.33-11 22.9 22.9 0 0 0-2.33-11.08 19.37 19.37 0 0 0-6.81-7.67 18 18 0 0 0-9.92-2.78 18.37 18.37 0 0 0-10 2.78 19.11 19.11 0 0 0-6.89 7.67 22.78 22.78 0 0 0-2.33 11.08 22.34 22.34 0 0 0 2.33 11 19.22 19.22 0 0 0 6.89 7.59 18.37 18.37 0 0 0 10 2.78z"/><path class="cls-1" d="m882.85 174.83-34.39-82.25h27.42l20.45 61.49-6 0.62 21.06-62.11h27.11l-36.09 82.25z"/><path class="cls-1" d="m988.19 176.38q-13.63 0-23.7-5.5a39.78 39.78 0 0 1-15.65-15 42.27 42.27 0 0 1-5.58-21.77 47.25 47.25 0 0 1 3.1-17.35 41.55 41.55 0 0 1 8.64-13.76 38.7 38.7 0 0 1 13.24-9 43.43 43.43 0 0 1 16.81-3.18 39.91 39.91 0 0 1 15.95 3.18 37.29 37.29 0 0 1 12.47 8.68 38 38 0 0 1 8 13.16 43.26 43.26 0 0 1 2.48 16.58l-0.16 6.66h-65.5l-3.56-13.94h48.95l-2.64 2.94v-3.08a13.68 13.68 0 0 0-2.4-6.89 14.34 14.34 0 0 0-5.5-4.72 17 17 0 0 0-7.74-1.71 20.67 20.67 0 0 0-10.3 2.4 15.32 15.32 0 0 0-6.43 7 26 26 0 0 0-2.17 11.23 23.42 23.42 0 0 0 2.87 11.85 19.46 19.46 0 0 0 8.36 7.83 28.76 28.76 0 0 0 13.09 2.78 26.27 26.27 0 0 0 9.37-1.55 35.12 35.12 0 0 0 8.91-5.26l11.62 16.42a46.26 46.26 0 0 1-10.23 6.81 51.79 51.79 0 0 1-11.07 3.95 49.31 49.31 0 0 1-11.23 1.24z"/></g></svg>
