<svg width="142" height="68" viewBox="0 0 142 68" fill="none" xmlns="http://www.w3.org/2000/svg">
<rect x="0" y="0" width="100%" height="100%" fill="white" />
<path fill-rule="evenodd" clip-rule="evenodd" d="M53.2677 62.1715C62.2275 56.037 68.1063 45.7316 68.1063 34.0532C68.1063 15.2461 52.8602 0 34.0532 0C28.7834 0 23.7931 1.19704 19.3396 3.33404C17.8831 4.84935 17.2338 7.71139 17.1483 9.25191L16.8409 15.6252C16.636 20.4602 16.5336 24.1377 16.5336 26.6577C16.5336 29.1777 16.5482 30.8773 16.5775 31.7564C16.636 32.6354 16.7531 33.3534 16.9288 33.9101C17.28 35.0822 18.1582 35.639 19.5634 35.5804C20.9978 35.5218 22.2858 35.2287 23.4275 34.7013C24.5692 34.1445 25.5059 33.4413 26.2378 32.5915C27.7014 30.9505 28.4333 29.207 28.4333 27.361C28.4333 25.5149 27.7746 23.7128 27.7746 23.7128C26.9855 21.2029 43.2625 17.562 42.1917 20.1321C41.5408 21.6942 40.9189 23.0648 40.4655 24.0641C40.173 24.7088 39.9506 25.199 39.8358 25.4863C39.684 25.8915 39.4106 26.4277 39.1446 26.9496C38.9488 27.3335 38.757 27.7097 38.6205 28.0203C36.5421 32.6501 33.2634 36.0052 28.7846 38.0857C29.0773 44.1514 31.0679 50.2317 34.7564 56.3266C38.1905 61.9018 46.8667 63.5618 53.2677 62.1715ZM31.3424 68C28.5107 66.4728 26.2091 61.7905 24.4374 53.9531C23.8227 51.228 23.4129 48.6054 23.2079 46.0854C23.003 43.5653 22.681 41.9244 22.2419 41.1625C21.8028 40.3713 21.0124 39.9758 19.8707 39.9758C17.646 39.9758 16.5336 42.0562 16.5336 46.2172V49.4698C16.5336 55.1826 16.9004 62.7879 19.3003 64.7534C22.9932 66.5313 27.0562 67.6624 31.3424 68ZM6.98031 54.7123C2.60128 48.9825 0 41.8216 0 34.0532C0 26.2547 2.62145 19.0684 7.03122 13.3276C7.16732 15.2499 7.27568 17.6568 7.35628 20.5481L7.44411 25.9105C7.47338 27.6686 7.48802 31.1264 7.48802 36.2836C7.48802 40.8115 7.31878 46.9544 6.98031 54.7123Z" fill="black"/>
<circle cx="45.8325" cy="45.4042" r="7.71015" fill="#DE0C58"/>
<path d="M80.7679 57.3848C80.0784 57.3848 79.3856 57.329 78.6895 57.2174C78 57.1123 77.3499 56.958 76.7392 56.7544V54.9617C77.3696 55.1718 78.0394 55.3327 78.7486 55.4443C79.4644 55.556 80.1407 55.6118 80.7777 55.6118C81.9729 55.6118 82.8528 55.4115 83.4175 55.0109C83.9823 54.6104 84.2646 54.0194 84.2646 53.2379C84.2646 52.7979 84.1727 52.4368 83.9888 52.1544C83.8115 51.8655 83.5193 51.6225 83.1122 51.4255C82.7051 51.2285 82.1502 51.0512 81.4475 50.8936L80.5019 50.6769C79.1229 50.3748 78.1051 49.8955 77.4484 49.2388C76.7917 48.5821 76.4634 47.712 76.4634 46.6285C76.4634 45.7486 76.6768 44.9967 77.1036 44.3728C77.5305 43.749 78.1707 43.2696 79.0244 42.9347C79.8846 42.5998 80.9419 42.4324 82.1961 42.4324C82.8331 42.4324 83.4537 42.4751 84.0578 42.5604C84.6685 42.6392 85.23 42.7541 85.7422 42.9052V44.6979C84.6784 44.3696 83.5193 44.2054 82.2651 44.2054C79.842 44.2054 78.6304 44.977 78.6304 46.5202C78.6304 46.947 78.7092 47.3049 78.8668 47.5938C79.031 47.8762 79.2969 48.1159 79.6647 48.3129C80.039 48.5099 80.5479 48.6806 81.1914 48.8251L82.1272 49.0418C83.631 49.3701 84.7243 49.8626 85.4073 50.5193C86.0902 51.1694 86.4317 52.0362 86.4317 53.1197C86.4317 54.0128 86.2084 54.7811 85.7619 55.4246C85.3153 56.0616 84.6685 56.5476 83.8214 56.8825C82.9743 57.2174 81.9564 57.3848 80.7679 57.3848Z" fill="#141414"/>
<path d="M93.6453 55.6118C94.0328 55.6118 94.4859 55.556 95.0046 55.4443V57.1681C94.4071 57.3126 93.7799 57.3848 93.1233 57.3848C91.869 57.3848 90.9103 57.0729 90.247 56.449C89.5904 55.8252 89.262 54.8698 89.262 53.5827V48.1947H87.2329V46.4808H89.262L89.6363 42.6195H91.3896V46.4808H94.8667V48.1947H91.3896V53.2182C91.3896 54.085 91.5702 54.7023 91.9314 55.07C92.2991 55.4312 92.8704 55.6118 93.6453 55.6118Z" fill="#141414"/>
<path d="M100.354 46.3133C101.417 46.3133 102.284 46.4446 102.954 46.7073C103.63 46.97 104.136 47.4034 104.471 48.0075C104.806 48.6117 104.973 49.4292 104.973 50.4602V57.1977H103.2L103.043 56.0353H102.924C102.563 56.4622 102.097 56.7938 101.526 57.0302C100.954 57.26 100.34 57.375 99.6837 57.375C98.9483 57.375 98.3178 57.2535 97.7925 57.0105C97.2672 56.7675 96.8666 56.4228 96.5908 55.9762C96.315 55.5231 96.1771 54.9945 96.1771 54.3904C96.1771 53.4316 96.5153 52.6896 97.1917 52.1643C97.8746 51.6324 98.9581 51.3007 100.442 51.1694L102.885 50.9232V50.342C102.885 49.7313 102.783 49.2552 102.58 48.9137C102.383 48.5657 102.077 48.3227 101.664 48.1848C101.256 48.0404 100.715 47.9681 100.038 47.9681C99.5655 47.9681 99.0566 48.0075 98.5116 48.0863C97.9665 48.1651 97.4445 48.2866 96.9454 48.4508V46.8058C97.4379 46.6482 97.9895 46.5267 98.6002 46.4414C99.2109 46.356 99.7954 46.3133 100.354 46.3133ZM100.275 55.8482C100.761 55.8482 101.227 55.7563 101.673 55.5724C102.127 55.3885 102.53 55.1127 102.885 54.745V52.2234L100.61 52.4499C99.7954 52.5353 99.2076 52.7224 98.8465 53.0114C98.4853 53.2937 98.3047 53.6943 98.3047 54.2131C98.3047 54.7384 98.4689 55.1423 98.7972 55.4246C99.1256 55.707 99.6181 55.8482 100.275 55.8482Z" fill="#141414"/>
<path d="M107.859 46.4808H109.612L109.78 47.8795H109.908C110.269 47.3935 110.735 47.0192 111.306 46.7566C111.884 46.4939 112.498 46.3626 113.148 46.3626C113.49 46.3626 113.812 46.3921 114.114 46.4512V48.3818C113.805 48.3293 113.444 48.303 113.03 48.303C112.472 48.303 111.911 48.4179 111.346 48.6478C110.781 48.871 110.328 49.1994 109.986 49.6328V57.1977H107.859V46.4808Z" fill="#141414"/>
<path d="M121.156 55.6118C121.544 55.6118 121.997 55.556 122.516 55.4443V57.1681C121.918 57.3126 121.291 57.3848 120.634 57.3848C119.38 57.3848 118.421 57.0729 117.758 56.449C117.101 55.8252 116.773 54.8698 116.773 53.5827V48.1947H114.744V46.4808H116.773L117.147 42.6195H118.901V46.4808H122.378V48.1947H118.901V53.2182C118.901 54.085 119.081 54.7023 119.442 55.07C119.81 55.4312 120.381 55.6118 121.156 55.6118Z" fill="#141414"/>
<path d="M132.95 52.4893H125.701C125.734 53.2708 125.885 53.9012 126.154 54.3805C126.43 54.8533 126.84 55.2014 127.385 55.4246C127.93 55.6413 128.636 55.7497 129.503 55.7497C130.383 55.7497 131.342 55.6085 132.379 55.3261V56.9613C131.296 57.2502 130.242 57.3947 129.217 57.3947C127.319 57.3947 125.901 56.9481 124.962 56.055C124.029 55.1554 123.563 53.7501 123.563 51.8392C123.563 50.6441 123.75 49.6361 124.125 48.8152C124.506 47.9878 125.054 47.364 125.77 46.9437C126.492 46.5234 127.359 46.3133 128.37 46.3133C129.854 46.3133 130.987 46.7894 131.768 47.7416C132.556 48.6872 132.95 50.0728 132.95 51.8983V52.4893ZM128.35 47.7416C127.497 47.7416 126.847 48.0141 126.4 48.5591C125.954 49.1042 125.717 49.9743 125.691 51.1694H130.941C130.915 49.9743 130.685 49.1042 130.251 48.5591C129.825 48.0141 129.191 47.7416 128.35 47.7416Z" fill="#141414"/>
<path d="M135.235 46.4808H136.988L137.156 47.8795H137.284C137.645 47.3935 138.111 47.0192 138.683 46.7566C139.261 46.4939 139.875 46.3626 140.525 46.3626C140.866 46.3626 141.188 46.3921 141.49 46.4512V48.3818C141.181 48.3293 140.82 48.303 140.406 48.303C139.848 48.303 139.287 48.4179 138.722 48.6478C138.157 48.871 137.704 49.1994 137.363 49.6328V57.1977H135.235V46.4808Z" fill="#141414"/>
<path d="M75.8738 34.0044C76.4592 34.0044 76.9545 33.8018 77.3598 33.3965C77.7876 32.9688 78.0127 32.4622 78.0352 31.8768V13.1335C78.0127 12.323 77.6412 11.7151 76.9208 11.3098C76.6056 11.1297 76.2566 11.0396 75.8738 11.0396H75.4348V10.7019H85.7014L85.6676 11.0396H85.2624C84.677 11.0396 84.1704 11.2423 83.7427 11.6475C83.3149 12.0528 83.101 12.5481 83.101 13.1335V31.8768C83.101 32.4622 83.3149 32.9688 83.7427 33.3965C84.1704 33.8018 84.677 34.0044 85.2624 34.0044H85.6676L85.7014 34.3421H75.4348V34.0044H75.8738ZM109.409 40.0833C107.766 40.9389 106.268 41.3667 104.918 41.3667C103.567 41.3667 102.351 41.1753 101.27 40.7925C98.591 39.8244 95.8555 37.6067 93.0637 34.1395L84.1817 23.1975L92.1856 12.5931C92.3657 12.368 92.4558 12.1654 92.4558 11.9853C92.4558 11.8051 92.422 11.6475 92.3545 11.5125C92.1743 11.1747 91.8591 11.0059 91.4088 11.0059H91.0711V10.7019H98.8049V11.0059H98.6698C97.1613 11.0059 95.9343 11.5462 94.9886 12.6269L88.4032 20.462L97.5891 31.8768C99.6379 34.5785 101.563 36.5373 103.364 37.7531C105.165 38.9689 107.169 39.633 109.375 39.7456L109.409 40.0833Z" fill="#141414"/>
<path d="M113.116 10.2291C117.282 10.2291 120.591 11.3323 123.045 13.5388C125.499 15.7452 126.726 18.7396 126.726 22.522C126.726 26.3045 125.499 29.2989 123.045 31.5053C120.591 33.7117 117.282 34.8149 113.116 34.8149C108.951 34.8149 105.642 33.7117 103.188 31.5053C100.733 29.2989 99.5064 26.3045 99.5064 22.522C99.5064 20.0229 100.058 17.8503 101.161 16.0041C102.287 14.1354 103.874 12.7057 105.923 11.7151C107.972 10.7244 110.37 10.2291 113.116 10.2291ZM107.206 30.4922C108.67 32.4284 110.64 33.3965 113.116 33.3965C115.593 33.3965 117.552 32.4284 118.993 30.4922C120.456 28.5334 121.188 25.8767 121.188 22.522C121.188 20.3156 120.861 18.3906 120.208 16.7471C119.556 15.1035 118.621 13.8427 117.405 12.9646C116.19 12.0866 114.76 11.6475 113.116 11.6475C110.64 11.6475 108.67 12.6269 107.206 14.5857C105.765 16.5219 105.045 19.1674 105.045 22.522C105.045 25.8767 105.765 28.5334 107.206 30.4922Z" fill="#141414"/>
<path d="M129.137 34.0044C129.722 34.0044 130.218 33.8018 130.623 33.3965C131.051 32.9688 131.276 32.4622 131.298 31.8768V13.1335C131.276 12.5481 131.051 12.0528 130.623 11.6475C130.218 11.2423 129.722 11.0396 129.137 11.0396H128.698V10.7019H138.964L138.931 11.0396H138.525C137.94 11.0396 137.433 11.2423 137.006 11.6475C136.578 12.0528 136.364 12.5481 136.364 13.1335V31.8768C136.364 32.4622 136.578 32.9688 137.006 33.3965C137.433 33.8018 137.94 34.0044 138.525 34.0044H138.931L138.964 34.3421H128.698V34.0044H129.137Z" fill="#141414"/>
</svg>
