<svg width="298" height="212" viewBox="0 0 298 212" fill="none" xmlns="http://www.w3.org/2000/svg">
<g filter="url(#filter0_d_1_42)">
<path d="M152.098 57.5259C149.614 55.1291 145.584 55.1291 143.098 57.5259C140.613 59.9228 140.613 63.8072 143.098 66.2041L160.123 82.6204L164.126 78.7608C166.886 76.1002 166.886 71.7842 164.126 69.1225L152.098 57.5259Z" fill="url(#paint0_linear_1_42)"/>
<path d="M136.679 64.896L169.94 97.4714L160.766 106.457L127.505 73.8813L136.679 64.896Z" fill="url(#paint1_linear_1_42)"/>
<path d="M136.692 88.1211L153.725 104.203C156.208 106.677 156.208 110.686 153.725 113.158C151.243 115.632 147.218 115.632 144.735 113.158L132.693 101.034C129.936 98.2877 129.936 94.8504 132.693 92.1038L136.692 88.1211Z" fill="url(#paint2_linear_1_42)"/>
<path d="M176.85 80.1953C174.411 77.7244 170.461 77.7244 168.023 80.1953C165.587 82.6674 165.587 86.6737 168.023 89.1458L172.437 93.6217L176.85 89.1458C179.286 86.6737 179.286 82.6674 176.85 80.1953Z" fill="url(#paint3_linear_1_42)"/>
<path d="M125.633 77.1197L130.045 81.5945C132.483 84.0667 132.483 88.0731 130.045 90.5452C127.609 93.0174 123.657 93.0174 121.219 90.5452C118.783 88.0731 118.783 84.0667 121.219 81.5945L125.633 77.1197Z" fill="url(#paint4_linear_1_42)"/>
<path d="M38 162.006V139.475H42.8925L51.1002 152.833L47.5918 152.8L55.8961 139.475H60.5955V162.006H55.2846V154.989C55.2846 153.058 55.3275 151.32 55.4133 149.775C55.5206 148.23 55.6923 146.696 55.9283 145.172L56.5399 146.846L50.2955 156.534H48.1712L42.0556 146.91L42.6672 145.172C42.9032 146.61 43.0641 148.09 43.15 149.614C43.2573 151.116 43.3109 152.908 43.3109 154.989V162.006H38Z" fill="url(#paint5_linear_1_42)"/>
<path d="M72.0197 162.296C70.582 162.296 69.2945 161.92 68.1572 161.169C67.0414 160.397 66.1509 159.345 65.4857 158.015C64.8205 156.663 64.4879 155.139 64.4879 153.444C64.4879 151.706 64.8205 150.172 65.4857 148.841C66.1509 147.511 67.0629 146.47 68.2216 145.719C69.3803 144.947 70.7 144.561 72.1806 144.561C72.996 144.561 73.7364 144.679 74.4016 144.915C75.0882 145.151 75.6891 145.483 76.204 145.912C76.719 146.32 77.1589 146.803 77.5237 147.361C77.8885 147.897 78.1567 148.477 78.3284 149.099L77.2662 148.97V144.915H82.384V162.006H77.1697V157.886L78.3284 157.854C78.1567 158.455 77.8778 159.023 77.4915 159.56C77.1053 160.096 76.6332 160.568 76.0753 160.976C75.5174 161.384 74.8951 161.706 74.2084 161.942C73.5218 162.178 72.7922 162.296 72.0197 162.296ZM73.4359 157.95C74.2299 157.95 74.9166 157.768 75.4959 157.403C76.0753 157.038 76.5259 156.523 76.8478 155.858C77.1697 155.172 77.3306 154.367 77.3306 153.444C77.3306 152.521 77.1697 151.728 76.8478 151.062C76.5259 150.376 76.0753 149.85 75.4959 149.485C74.9166 149.099 74.2299 148.906 73.4359 148.906C72.6634 148.906 71.9875 149.099 71.4081 149.485C70.8502 149.85 70.4103 150.376 70.0885 151.062C69.7666 151.728 69.6057 152.521 69.6057 153.444C69.6057 154.367 69.7666 155.172 70.0885 155.858C70.4103 156.523 70.8502 157.038 71.4081 157.403C71.9875 157.768 72.6634 157.95 73.4359 157.95Z" fill="url(#paint6_linear_1_42)"/>
<path d="M94.7497 169.409C93.3549 169.409 91.9601 169.205 90.5654 168.798C89.192 168.39 88.0762 167.864 87.2179 167.22L89.0204 163.615C89.471 163.916 89.9645 164.173 90.501 164.388C91.0589 164.624 91.6383 164.806 92.2391 164.935C92.8399 165.064 93.4515 165.128 94.0738 165.128C95.1681 165.128 96.0587 164.967 96.7453 164.645C97.432 164.324 97.947 163.83 98.2903 163.165C98.6336 162.521 98.8053 161.706 98.8053 160.719V157.854L99.8031 158.015C99.6529 158.723 99.2774 159.367 98.6766 159.946C98.0972 160.525 97.3783 160.997 96.52 161.362C95.6617 161.706 94.7497 161.877 93.7841 161.877C92.2391 161.877 90.855 161.523 89.6319 160.815C88.4303 160.086 87.4754 159.088 86.7673 157.822C86.0806 156.534 85.7373 155.054 85.7373 153.38C85.7373 151.663 86.0806 150.15 86.7673 148.841C87.4539 147.511 88.3981 146.47 89.5997 145.719C90.8014 144.947 92.1533 144.561 93.6553 144.561C94.2991 144.561 94.9106 144.636 95.49 144.786C96.0908 144.936 96.638 145.14 97.1316 145.397C97.6466 145.633 98.0972 145.923 98.4834 146.266C98.8911 146.588 99.213 146.942 99.4491 147.329C99.7065 147.715 99.8782 148.112 99.9641 148.52L98.9019 148.777L99.095 144.915H103.987V160.622C103.987 162.017 103.773 163.251 103.344 164.324C102.936 165.418 102.324 166.341 101.509 167.092C100.715 167.864 99.7495 168.443 98.6122 168.83C97.4749 169.216 96.1874 169.409 94.7497 169.409ZM94.8785 157.886C95.7153 157.886 96.4342 157.704 97.035 157.339C97.6573 156.953 98.1294 156.427 98.4512 155.762C98.7946 155.096 98.9662 154.313 98.9662 153.412C98.9662 152.511 98.7946 151.728 98.4512 151.062C98.1294 150.376 97.6573 149.85 97.035 149.485C96.4342 149.099 95.7153 148.906 94.8785 148.906C94.063 148.906 93.3549 149.099 92.7541 149.485C92.1533 149.85 91.6812 150.376 91.3379 151.062C91.016 151.728 90.855 152.511 90.855 153.412C90.855 154.313 91.016 155.096 91.3379 155.762C91.6812 156.427 92.1533 156.953 92.7541 157.339C93.3549 157.704 94.063 157.886 94.8785 157.886Z" fill="url(#paint7_linear_1_42)"/>
<path d="M108.749 162.006V144.915H113.899V162.006H108.749ZM111.324 141.535C110.359 141.535 109.597 141.31 109.039 140.859C108.503 140.387 108.234 139.722 108.234 138.863C108.234 138.091 108.513 137.458 109.071 136.964C109.629 136.471 110.38 136.224 111.324 136.224C112.29 136.224 113.041 136.46 113.578 136.932C114.114 137.383 114.382 138.026 114.382 138.863C114.382 139.657 114.103 140.301 113.545 140.795C113.009 141.288 112.269 141.535 111.324 141.535Z" fill="url(#paint8_linear_1_42)"/>
<path d="M126.238 162.328C124.586 162.328 123.105 161.942 121.796 161.169C120.487 160.397 119.446 159.345 118.674 158.015C117.923 156.663 117.547 155.139 117.547 153.444C117.547 151.749 117.923 150.236 118.674 148.906C119.446 147.554 120.487 146.492 121.796 145.719C123.105 144.947 124.586 144.561 126.238 144.561C127.761 144.561 129.156 144.829 130.422 145.365C131.71 145.902 132.729 146.653 133.48 147.618L130.68 150.966C130.379 150.622 130.025 150.301 129.618 150C129.21 149.7 128.759 149.464 128.266 149.292C127.772 149.12 127.257 149.035 126.721 149.035C125.905 149.035 125.186 149.228 124.564 149.614C123.942 149.979 123.459 150.494 123.116 151.159C122.772 151.824 122.601 152.586 122.601 153.444C122.601 154.26 122.772 155 123.116 155.665C123.481 156.33 123.974 156.856 124.596 157.242C125.219 157.629 125.927 157.822 126.721 157.822C127.279 157.822 127.794 157.757 128.266 157.629C128.738 157.478 129.167 157.264 129.553 156.985C129.961 156.706 130.336 156.363 130.68 155.955L133.448 159.334C132.718 160.257 131.699 160.987 130.39 161.523C129.103 162.06 127.719 162.328 126.238 162.328Z" fill="url(#paint9_linear_1_42)"/>
<path d="M154.602 162.328C153.122 162.328 151.781 162.156 150.579 161.813C149.399 161.448 148.347 160.933 147.425 160.268C146.502 159.581 145.676 158.777 144.946 157.854L148.262 154.088C149.334 155.526 150.407 156.491 151.48 156.985C152.575 157.478 153.701 157.725 154.86 157.725C155.439 157.725 155.965 157.65 156.437 157.5C156.909 157.35 157.274 157.135 157.532 156.856C157.789 156.556 157.918 156.191 157.918 155.762C157.918 155.44 157.832 155.15 157.66 154.893C157.51 154.635 157.295 154.41 157.017 154.217C156.738 154.024 156.405 153.852 156.019 153.702C155.632 153.53 155.225 153.391 154.796 153.283C154.366 153.155 153.927 153.047 153.476 152.961C152.231 152.682 151.148 152.339 150.225 151.931C149.302 151.524 148.53 151.03 147.908 150.451C147.307 149.85 146.856 149.174 146.556 148.423C146.255 147.65 146.105 146.792 146.105 145.848C146.105 144.839 146.33 143.917 146.781 143.08C147.253 142.222 147.875 141.492 148.648 140.891C149.442 140.269 150.354 139.797 151.384 139.475C152.414 139.132 153.487 138.96 154.602 138.96C156.083 138.96 157.349 139.121 158.401 139.443C159.473 139.743 160.385 140.183 161.136 140.762C161.909 141.342 162.563 142.039 163.1 142.855L159.72 146.105C159.27 145.548 158.776 145.086 158.24 144.721C157.725 144.357 157.167 144.078 156.566 143.885C155.987 143.691 155.386 143.595 154.763 143.595C154.12 143.595 153.562 143.681 153.09 143.852C152.639 144.003 152.285 144.228 152.027 144.528C151.77 144.807 151.641 145.151 151.641 145.558C151.641 145.923 151.749 146.234 151.963 146.492C152.178 146.749 152.467 146.985 152.832 147.2C153.197 147.393 153.615 147.565 154.087 147.715C154.56 147.844 155.053 147.951 155.568 148.037C156.748 148.273 157.81 148.584 158.755 148.97C159.72 149.356 160.546 149.828 161.233 150.386C161.941 150.944 162.478 151.61 162.842 152.382C163.229 153.133 163.422 154.013 163.422 155.021C163.422 156.588 163.036 157.918 162.263 159.013C161.512 160.086 160.471 160.912 159.141 161.491C157.832 162.049 156.319 162.328 154.602 162.328Z" fill="url(#paint10_linear_1_42)"/>
<path d="M178.414 169.087V157.886L179.541 158.144C179.455 158.68 179.23 159.206 178.865 159.721C178.5 160.214 178.039 160.654 177.481 161.04C176.944 161.427 176.333 161.738 175.646 161.974C174.96 162.188 174.251 162.296 173.522 162.296C172.02 162.296 170.689 161.92 169.531 161.169C168.372 160.397 167.46 159.345 166.795 158.015C166.129 156.684 165.797 155.161 165.797 153.444C165.797 151.706 166.119 150.172 166.762 148.841C167.428 147.511 168.329 146.47 169.466 145.719C170.625 144.947 171.923 144.561 173.361 144.561C174.176 144.561 174.949 144.679 175.678 144.915C176.408 145.151 177.062 145.462 177.642 145.848C178.221 146.234 178.693 146.685 179.058 147.2C179.423 147.693 179.627 148.219 179.67 148.777L178.511 148.97L178.704 144.915H183.596V169.087H178.414ZM174.681 157.95C175.474 157.95 176.161 157.768 176.741 157.403C177.32 157.038 177.771 156.523 178.092 155.858C178.414 155.172 178.575 154.367 178.575 153.444C178.575 152.521 178.414 151.728 178.092 151.062C177.771 150.376 177.32 149.85 176.741 149.485C176.161 149.099 175.474 148.906 174.681 148.906C173.908 148.906 173.232 149.099 172.653 149.485C172.073 149.85 171.623 150.376 171.301 151.062C171 151.749 170.85 152.543 170.85 153.444C170.85 154.367 171 155.172 171.301 155.858C171.623 156.523 172.073 157.038 172.653 157.403C173.232 157.768 173.908 157.95 174.681 157.95Z" fill="url(#paint11_linear_1_42)"/>
<path d="M193.999 162.36C192.733 162.36 191.65 162.092 190.749 161.555C189.869 160.997 189.182 160.204 188.689 159.174C188.216 158.144 187.98 156.91 187.98 155.472V144.915H193.163V154.764C193.163 155.451 193.27 156.041 193.484 156.534C193.699 157.028 194.021 157.414 194.45 157.693C194.879 157.95 195.394 158.079 195.995 158.079C196.446 158.079 196.853 158.004 197.218 157.854C197.604 157.704 197.926 157.5 198.184 157.242C198.463 156.963 198.677 156.652 198.828 156.309C198.978 155.944 199.053 155.547 199.053 155.118V144.915H204.235V162.006H199.375L199.149 158.498L200.115 158.111C199.858 158.927 199.428 159.656 198.828 160.3C198.227 160.922 197.508 161.427 196.671 161.813C195.834 162.178 194.944 162.36 193.999 162.36Z" fill="url(#paint12_linear_1_42)"/>
<path d="M215.134 162.296C213.696 162.296 212.408 161.92 211.271 161.169C210.155 160.397 209.265 159.345 208.6 158.015C207.934 156.663 207.602 155.139 207.602 153.444C207.602 151.706 207.934 150.172 208.6 148.841C209.265 147.511 210.177 146.47 211.336 145.719C212.494 144.947 213.814 144.561 215.295 144.561C216.11 144.561 216.85 144.679 217.516 144.915C218.202 145.151 218.803 145.483 219.318 145.912C219.833 146.32 220.273 146.803 220.638 147.361C221.002 147.897 221.271 148.477 221.442 149.099L220.38 148.97V144.915H225.498V162.006H220.284V157.886L221.442 157.854C221.271 158.455 220.992 159.023 220.605 159.56C220.219 160.096 219.747 160.568 219.189 160.976C218.631 161.384 218.009 161.706 217.322 161.942C216.636 162.178 215.906 162.296 215.134 162.296ZM216.55 157.95C217.344 157.95 218.031 157.768 218.61 157.403C219.189 157.038 219.64 156.523 219.962 155.858C220.284 155.172 220.445 154.367 220.445 153.444C220.445 152.521 220.284 151.728 219.962 151.062C219.64 150.376 219.189 149.85 218.61 149.485C218.031 149.099 217.344 148.906 216.55 148.906C215.777 148.906 215.101 149.099 214.522 149.485C213.964 149.85 213.524 150.376 213.202 151.062C212.881 151.728 212.72 152.521 212.72 153.444C212.72 154.367 212.881 155.172 213.202 155.858C213.524 156.523 213.964 157.038 214.522 157.403C215.101 157.768 215.777 157.95 216.55 157.95Z" fill="url(#paint13_linear_1_42)"/>
<path d="M230.042 162.006V144.915H234.935L235.16 150.483L234.194 149.421C234.452 148.498 234.87 147.672 235.45 146.942C236.05 146.213 236.748 145.633 237.542 145.204C238.336 144.775 239.183 144.561 240.085 144.561C240.471 144.561 240.825 144.593 241.147 144.657C241.49 144.721 241.801 144.797 242.08 144.882L240.664 150.58C240.428 150.429 240.106 150.311 239.698 150.225C239.312 150.118 238.904 150.065 238.475 150.065C238.003 150.065 237.563 150.15 237.156 150.322C236.748 150.472 236.405 150.698 236.126 150.998C235.847 151.298 235.621 151.652 235.45 152.06C235.299 152.468 235.224 152.929 235.224 153.444V162.006H230.042Z" fill="url(#paint14_linear_1_42)"/>
<path d="M252.11 162.328C250.222 162.328 248.58 161.952 247.186 161.201C245.791 160.429 244.707 159.388 243.935 158.079C243.162 156.749 242.776 155.236 242.776 153.541C242.776 152.232 242.991 151.03 243.42 149.936C243.849 148.841 244.45 147.897 245.222 147.103C245.995 146.288 246.907 145.666 247.958 145.236C249.031 144.786 250.201 144.561 251.467 144.561C252.668 144.561 253.763 144.775 254.75 145.204C255.758 145.633 256.627 146.234 257.357 147.007C258.086 147.779 258.644 148.691 259.031 149.743C259.417 150.794 259.589 151.942 259.546 153.187L259.513 154.571H245.898L245.158 151.674H255.329L254.782 152.285V151.642C254.739 151.105 254.567 150.633 254.267 150.225C253.988 149.796 253.612 149.464 253.14 149.228C252.668 148.992 252.132 148.874 251.531 148.874C250.694 148.874 249.975 149.045 249.374 149.389C248.795 149.71 248.355 150.193 248.055 150.837C247.754 151.459 247.604 152.232 247.604 153.155C247.604 154.099 247.797 154.925 248.183 155.633C248.591 156.32 249.171 156.856 249.922 157.242C250.694 157.629 251.606 157.822 252.658 157.822C253.387 157.822 254.031 157.714 254.589 157.5C255.168 157.285 255.79 156.92 256.456 156.405L258.87 159.817C258.204 160.397 257.496 160.869 256.745 161.234C255.994 161.598 255.222 161.867 254.428 162.038C253.655 162.231 252.883 162.328 252.11 162.328Z" fill="url(#paint15_linear_1_42)"/>
</g>
<defs>
<filter id="filter0_d_1_42" x="-31.5518" y="-6.2602" width="360.656" height="224.513" filterUnits="userSpaceOnUse" color-interpolation-filters="sRGB">
<feFlood flood-opacity="0" result="BackgroundImageFix"/>
<feColorMatrix in="SourceAlpha" type="matrix" values="0 0 0 0 0 0 0 0 0 0 0 0 0 0 0 0 0 0 127 0" result="hardAlpha"/>
<feOffset dy="4.29164"/>
<feGaussianBlur stdDeviation="18.7759"/>
<feComposite in2="hardAlpha" operator="out"/>
<feColorMatrix type="matrix" values="0 0 0 0 0.25098 0 0 0 0 0.337255 0 0 0 0 0.968627 0 0 0 0.21 0"/>
<feBlend mode="normal" in2="BackgroundImageFix" result="effect1_dropShadow_1_42"/>
<feBlend mode="normal" in="SourceGraphic" in2="effect1_dropShadow_1_42" result="shape"/>
</filter>
<linearGradient id="paint0_linear_1_42" x1="161.669" y1="66.7247" x2="131.433" y2="100.955" gradientUnits="userSpaceOnUse">
<stop stop-color="#F170A8"/>
<stop offset="0.473958" stop-color="#D561CE"/>
<stop offset="1" stop-color="#6EBFFA"/>
</linearGradient>
<linearGradient id="paint1_linear_1_42" x1="161.669" y1="66.7247" x2="131.433" y2="100.955" gradientUnits="userSpaceOnUse">
<stop stop-color="#F170A8"/>
<stop offset="0.473958" stop-color="#D561CE"/>
<stop offset="1" stop-color="#6EBFFA"/>
</linearGradient>
<linearGradient id="paint2_linear_1_42" x1="161.669" y1="66.7247" x2="131.433" y2="100.955" gradientUnits="userSpaceOnUse">
<stop stop-color="#F170A8"/>
<stop offset="0.473958" stop-color="#D561CE"/>
<stop offset="1" stop-color="#6EBFFA"/>
</linearGradient>
<linearGradient id="paint3_linear_1_42" x1="161.669" y1="66.7247" x2="131.433" y2="100.955" gradientUnits="userSpaceOnUse">
<stop stop-color="#F170A8"/>
<stop offset="0.473958" stop-color="#D561CE"/>
<stop offset="1" stop-color="#6EBFFA"/>
</linearGradient>
<linearGradient id="paint4_linear_1_42" x1="161.669" y1="66.7247" x2="131.433" y2="100.955" gradientUnits="userSpaceOnUse">
<stop stop-color="#F170A8"/>
<stop offset="0.473958" stop-color="#D561CE"/>
<stop offset="1" stop-color="#6EBFFA"/>
</linearGradient>
<linearGradient id="paint5_linear_1_42" x1="195.992" y1="142.379" x2="191.557" y2="175.903" gradientUnits="userSpaceOnUse">
<stop stop-color="#F170A8"/>
<stop offset="0.473958" stop-color="#D561CE"/>
<stop offset="1" stop-color="#6EBFFA"/>
</linearGradient>
<linearGradient id="paint6_linear_1_42" x1="195.992" y1="142.379" x2="191.557" y2="175.903" gradientUnits="userSpaceOnUse">
<stop stop-color="#F170A8"/>
<stop offset="0.473958" stop-color="#D561CE"/>
<stop offset="1" stop-color="#6EBFFA"/>
</linearGradient>
<linearGradient id="paint7_linear_1_42" x1="195.992" y1="142.379" x2="191.557" y2="175.903" gradientUnits="userSpaceOnUse">
<stop stop-color="#F170A8"/>
<stop offset="0.473958" stop-color="#D561CE"/>
<stop offset="1" stop-color="#6EBFFA"/>
</linearGradient>
<linearGradient id="paint8_linear_1_42" x1="195.992" y1="142.379" x2="191.557" y2="175.903" gradientUnits="userSpaceOnUse">
<stop stop-color="#F170A8"/>
<stop offset="0.473958" stop-color="#D561CE"/>
<stop offset="1" stop-color="#6EBFFA"/>
</linearGradient>
<linearGradient id="paint9_linear_1_42" x1="195.992" y1="142.379" x2="191.557" y2="175.903" gradientUnits="userSpaceOnUse">
<stop stop-color="#F170A8"/>
<stop offset="0.473958" stop-color="#D561CE"/>
<stop offset="1" stop-color="#6EBFFA"/>
</linearGradient>
<linearGradient id="paint10_linear_1_42" x1="195.992" y1="142.379" x2="191.557" y2="175.903" gradientUnits="userSpaceOnUse">
<stop stop-color="#F170A8"/>
<stop offset="0.473958" stop-color="#D561CE"/>
<stop offset="1" stop-color="#6EBFFA"/>
</linearGradient>
<linearGradient id="paint11_linear_1_42" x1="195.992" y1="142.379" x2="191.557" y2="175.903" gradientUnits="userSpaceOnUse">
<stop stop-color="#F170A8"/>
<stop offset="0.473958" stop-color="#D561CE"/>
<stop offset="1" stop-color="#6EBFFA"/>
</linearGradient>
<linearGradient id="paint12_linear_1_42" x1="195.992" y1="142.379" x2="191.557" y2="175.903" gradientUnits="userSpaceOnUse">
<stop stop-color="#F170A8"/>
<stop offset="0.473958" stop-color="#D561CE"/>
<stop offset="1" stop-color="#6EBFFA"/>
</linearGradient>
<linearGradient id="paint13_linear_1_42" x1="195.992" y1="142.379" x2="191.557" y2="175.903" gradientUnits="userSpaceOnUse">
<stop stop-color="#F170A8"/>
<stop offset="0.473958" stop-color="#D561CE"/>
<stop offset="1" stop-color="#6EBFFA"/>
</linearGradient>
<linearGradient id="paint14_linear_1_42" x1="195.992" y1="142.379" x2="191.557" y2="175.903" gradientUnits="userSpaceOnUse">
<stop stop-color="#F170A8"/>
<stop offset="0.473958" stop-color="#D561CE"/>
<stop offset="1" stop-color="#6EBFFA"/>
</linearGradient>
<linearGradient id="paint15_linear_1_42" x1="195.992" y1="142.379" x2="191.557" y2="175.903" gradientUnits="userSpaceOnUse">
<stop stop-color="#F170A8"/>
<stop offset="0.473958" stop-color="#D561CE"/>
<stop offset="1" stop-color="#6EBFFA"/>
</linearGradient>
</defs>
</svg>
