<?xml version="1.0" encoding="utf-8"?>
<!-- Generator: Adobe Illustrator 26.0.3, SVG Export Plug-In . SVG Version: 6.00 Build 0)  -->
<svg version="1.1" id="Layer_1" xmlns="http://www.w3.org/2000/svg" xmlns:xlink="http://www.w3.org/1999/xlink" x="0px" y="0px"
	 viewBox="0 0 2123.6 189" style="enable-background:new 0 0 2123.6 189;" xml:space="preserve">
<style type="text/css">
	.st0{fill:#FFFFFF;}
	.st1{fill:#00C9FF;}
</style>
<path class="st0" d="M27.5,58.5v104.9H0V25.6h33.4l106.7,105v-105h27.5v137.8h-33.4L27.5,58.5z"/>
<path class="st0" d="M227.7,163.4h-27.5V25.6h151.5v27.5h-124v27.6h96.5v27.5h-96.5v27.5h124v27.5H227.7z"/>
<polygon class="st0" points="576.7,25.6 552.5,53 552.5,53.1 614.5,53.1 614.5,163.4 642,163.4 642,53.1 706.4,53.1 706.4,25.6 "/>
<polygon class="st1" points="418.7,25.6 382.2,25.6 442.9,94.3 382.2,163 418.7,163 479.4,94.3 "/>
<polygon class="st1" points="497.8,73.6 540.2,25.6 503.7,25.6 479.5,52.9 "/>
<polygon class="st1" points="479.5,135.7 503.7,163 540.2,163 497.8,115.1 "/>
<path class="st0" d="M962.7,102.6V86.5c0-8.6,3.4-16.8,9.5-22.8c6.6-6.3,14.2-9.5,22.8-9.5h29.6c8.6,0,16.2,3.2,22.8,9.5
	c5.7,5.7,9.1,13.4,9.4,21.5h-16.2c-0.4-4.1-2.2-7.8-5.2-10.6c-2.9-2.8-6.8-4.3-10.8-4.2h-29.6c-8.9,0-16.1,7.3-16.1,16.2v16.1
	c0,8.9,7.2,16.1,16.1,16.1h29.6c4,0.1,7.9-1.4,10.8-4.2c3-2.7,4.8-6.5,5.2-10.5h16.2c-0.3,8.1-3.7,15.7-9.4,21.4
	c-6.6,6.3-14.2,9.5-22.8,9.5h-29.6c-8.6,0-16.2-3.2-22.8-9.5C965.9,118.8,962.7,111.2,962.7,102.6z"/>
<path class="st0" d="M1175.8,121.4l-7.2,13.4h-18.3l43.4-80.7h16.9l43.4,80.7h-18.3l-7.2-13.4L1175.8,121.4z M1202.1,72.5
	l-17.6,32.7h35.3L1202.1,72.5z"/>
<path class="st0" d="M1441.5,81c0.1,4.8-1.2,9.4-3.6,13.5c-2.4,4-5.7,7.4-9.7,9.7c-4.1,2.4-8.8,3.7-13.5,3.6h-41v26.9h-16.1V54.2
	h57.1c4.8-0.1,9.4,1.2,13.5,3.6c4,2.4,7.4,5.7,9.7,9.8C1440.3,71.6,1441.5,76.3,1441.5,81z M1373.6,70.3v21.5h41
	c5.9,0,10.8-4.8,10.8-10.8c0-2.9-1.1-5.6-3.2-7.6c-2-2.1-4.7-3.2-7.6-3.2L1373.6,70.3z"/>
<path class="st0" d="M1545.1,54.2h16.1v80.7h-16.1V54.2z"/>
<path class="st0" d="M1754.9,54.2v16.1h-37.6v64.5h-16.1V70.3h-36.3V54.2H1754.9z"/>
<path class="st0" d="M1855.8,121.4l-7.2,13.4h-18.3l43.4-80.7h16.9l43.4,80.7h-18.3l-7.2-13.4L1855.8,121.4z M1882.2,72.5
	l-17.6,32.7h35.3L1882.2,72.5z"/>
<path class="st0" d="M2037.6,54.2h16.1v64.5h69.9v16.1h-86L2037.6,54.2z"/>
<rect x="821.8" y="0" class="st0" width="13.3" height="189"/>
</svg>
