<svg preserveAspectRatio='none' viewBox="0 0 220 80" fill="none" xmlns="http://www.w3.org/2000/svg">
<path d="M46.5018 45.4125C46.2665 45.883 45.9136 46.236 45.5607 46.3536C45.3254 46.4712 45.0901 46.4712 44.9724 46.4712H26.2671C28.8553 51.8829 34.6198 55.5298 41.0902 55.0592C47.7959 54.5887 53.5604 49.53 54.8545 42.8243C55.2074 40.7067 55.2074 38.7068 54.8545 36.8245H39.4432L46.0312 43.4125C46.1489 43.5302 46.2665 43.7654 46.3842 44.0007C46.5018 44.236 46.5018 44.4713 46.5018 44.5889C46.6194 45.0595 46.5018 45.2948 46.5018 45.4125Z" fill="url(#paint0_radial_1781_6725)"/>
<path d="M58.5017 36.942C58.6193 37.8831 58.737 38.9419 58.737 40.0007C58.737 50.3533 50.3843 58.706 40.0316 58.706C31.5613 58.706 24.385 53.0591 22.0322 45.2947C22.0322 45.177 22.0322 45.177 21.9145 45.0594C20.9734 41.7653 20.8557 38.1184 22.0322 34.3538C24.5027 27.1775 30.8554 22.0012 38.3846 21.2953C44.2668 20.8248 49.5608 23.06 53.3254 26.8246C54.3842 28.001 53.6783 29.8833 52.0313 29.8833C51.5607 29.8833 51.0901 29.648 50.7372 29.2951C47.7961 26.2364 43.4433 24.4717 38.6199 24.8247C32.0319 25.4129 26.385 30.4716 25.0909 37.0596C24.738 39.1772 24.738 41.1771 25.0909 43.0594H40.5022L33.9142 36.4714C33.7965 36.3537 33.6789 36.1184 33.5612 35.8832C33.4436 35.6479 33.4436 35.4126 33.4436 35.2949C33.4436 35.0597 33.4436 34.8244 33.5612 34.7067C33.7965 34.2362 34.0318 33.8832 34.5024 33.7656C34.7377 33.6479 34.973 33.6479 35.0906 33.6479H53.6783H57.5605H63.0898C60.2663 23.2953 50.8549 15.8837 39.7964 16.0014C27.2085 16.119 16.7382 26.2364 16.0323 38.7066C15.3265 52.5886 26.2673 64 40.0316 64C53.3254 64 64.0309 53.2944 64.0309 40.0007C64.0309 38.9419 63.9133 38.0007 63.7957 36.942H58.5017Z" fill="url(#paint1_radial_1781_6725)"/>
<path d="M83.7606 33.6478L81.8783 34.7066C81.5254 34.1184 81.1725 33.7655 80.9372 33.5302C80.5843 33.2949 80.2313 33.1772 79.6431 33.1772C79.0549 33.1772 78.4667 33.4125 78.1137 33.7655C77.6432 34.1184 77.5255 34.589 77.5255 35.0595C77.5255 35.7654 78.1138 36.3536 79.1725 36.8242L80.7019 37.4124C81.996 37.883 82.8195 38.4712 83.4077 39.2947C83.9959 40.0006 84.2312 40.9417 84.2312 42.0005C84.2312 43.4122 83.7606 44.5887 82.8195 45.5298C81.8783 46.471 80.7019 46.9415 79.2902 46.9415C77.9961 46.9415 76.8197 46.5886 75.9962 45.7651C75.1727 44.9416 74.5844 43.8828 74.4668 42.4711L76.8197 42.0005C76.9373 42.9417 77.055 43.5299 77.4079 43.8828C77.8785 44.5887 78.5843 44.824 79.5255 44.824C80.2313 44.824 80.8196 44.5887 81.2901 44.1181C81.7607 43.6475 81.996 43.0593 81.996 42.2358C81.996 41.8829 81.996 41.6476 81.8783 41.4123C81.7607 41.177 81.6431 40.9417 81.5254 40.7064C81.4078 40.4711 81.1725 40.3535 80.8196 40.1182C80.5843 39.8829 80.2313 39.7653 79.8784 39.6476L78.4667 39.0594C76.3491 38.2359 75.2903 36.9418 75.2903 35.1772C75.2903 34.0007 75.7609 33.0596 76.5844 32.3537C77.4079 31.5302 78.5843 31.1773 79.8784 31.1773C81.4078 31.0596 82.7019 31.8832 83.7606 33.6478Z" fill="#414042"/>
<path d="M90.2309 36.9419V42.4711C90.2309 44.1182 90.8191 44.824 92.1132 44.824C93.4073 44.824 93.9955 44.0005 93.9955 42.4711V36.9419H96.2307V42.4711C96.2307 43.2947 96.1131 43.8829 95.9954 44.4711C95.7601 44.9417 95.5249 45.4122 95.0543 45.7652C94.3484 46.471 93.4073 46.7063 92.2308 46.7063C91.0544 46.7063 90.1133 46.3534 89.4074 45.7652C88.9368 45.4122 88.5839 44.9417 88.4662 44.4711C88.231 44.0005 88.231 43.4123 88.231 42.4711V36.9419H90.2309Z" fill="#414042"/>
<path d="M102.701 29.8833V38.0007C103.642 37.0596 104.583 36.589 105.76 36.589C107.054 36.589 108.113 37.0596 108.936 38.0007C109.76 38.9419 110.23 40.1183 110.23 41.6477C110.23 43.177 109.76 44.3535 108.936 45.2946C108.113 46.2358 106.936 46.7063 105.642 46.7063C104.583 46.7063 103.525 46.2358 102.701 45.4123V46.5887H100.466V29.8833H102.701ZM107.995 41.7653C107.995 40.8242 107.76 40.1183 107.289 39.5301C106.819 38.9419 106.113 38.5889 105.407 38.5889C104.583 38.5889 103.877 38.8242 103.407 39.4124C102.936 40.0007 102.701 40.7065 102.701 41.6477C102.701 42.5888 102.936 43.2947 103.407 43.8829C103.877 44.4711 104.583 44.7064 105.407 44.7064C106.23 44.7064 106.819 44.4711 107.289 43.8829C107.76 43.4123 107.995 42.7065 107.995 41.7653Z" fill="#414042"/>
<path d="M129.995 46.8238H127.054L125.877 45.6474C124.583 46.4709 123.171 46.8238 121.642 46.8238C119.642 46.8238 117.877 46.118 116.23 44.8239C114.583 43.2945 113.642 41.4122 113.642 39.0593C113.642 36.8241 114.466 34.8242 116.113 33.2948C117.642 31.7654 119.524 31.0596 121.642 31.0596C123.524 31.0596 125.289 31.7654 126.818 33.0595C128.701 34.5889 129.524 36.7065 129.524 39.177C129.524 41.1769 128.818 42.9416 127.289 44.4709L129.995 46.8238ZM123.76 40.4711L125.995 42.7063C126.936 41.6475 127.407 40.4711 127.407 38.9417C127.407 37.2947 126.818 35.883 125.76 34.8242C124.701 33.7654 123.289 33.1772 121.76 33.1772C120.113 33.1772 118.819 33.7654 117.76 34.8242C116.701 35.883 116.23 37.2947 116.23 38.9417C116.23 40.5887 116.819 41.8828 117.877 42.9416C119.054 44.0004 120.348 44.5886 121.76 44.5886C122.701 44.5886 123.642 44.3533 124.465 43.8827L120.936 40.3534H123.76V40.4711Z" fill="#414042"/>
<path d="M135.877 36.9419V42.4711C135.877 44.1182 136.465 44.824 137.759 44.824C139.053 44.824 139.641 44.0005 139.641 42.4711V36.9419H141.877V42.4711C141.877 43.2947 141.759 43.8829 141.641 44.4711C141.406 44.9417 141.171 45.4122 140.7 45.7652C139.994 46.471 139.053 46.7063 137.877 46.7063C136.7 46.7063 135.759 46.3534 135.053 45.7652C134.583 45.4122 134.23 44.9417 134.112 44.4711C133.877 44.0005 133.877 43.4123 133.877 42.4711V36.9419H135.877Z" fill="#414042"/>
<path d="M154.935 42.2358H148.112C148.229 43.0593 148.465 43.6475 148.935 44.1181C149.406 44.5887 149.994 44.824 150.7 44.824C151.288 44.824 151.759 44.7063 152.112 44.471C152.465 44.2357 152.817 43.7652 153.288 43.0593L155.17 44.1181C154.935 44.5887 154.582 45.0592 154.229 45.4122C153.876 45.7651 153.523 46.0004 153.17 46.2357C152.817 46.471 152.347 46.5886 151.994 46.7063C151.523 46.8239 151.053 46.8239 150.582 46.8239C149.17 46.8239 147.994 46.3533 147.171 45.4122C146.347 44.471 145.876 43.2946 145.876 41.7652C145.876 40.2359 146.347 39.0594 147.171 38.1183C147.994 37.1771 149.17 36.7065 150.582 36.7065C151.994 36.7065 153.17 37.1771 153.876 38.0006C154.7 38.9418 155.053 40.1182 155.053 41.7652L154.935 42.2358ZM152.7 40.4711C152.347 39.2947 151.641 38.7065 150.465 38.7065C150.229 38.7065 149.994 38.7065 149.759 38.8241C149.523 38.9418 149.288 39.0594 149.17 39.1771C148.935 39.2947 148.818 39.53 148.7 39.7653C148.582 40.0006 148.465 40.2359 148.347 40.4711H152.7Z" fill="#414042"/>
<path d="M158.935 36.9418H161.17V37.7653C161.523 37.2948 161.994 37.0595 162.229 36.9418C162.582 36.8242 162.935 36.7065 163.405 36.7065C163.994 36.7065 164.582 36.9418 165.288 37.2948L164.229 39.2947C163.758 38.9418 163.405 38.8241 163.052 38.8241C161.876 38.8241 161.288 39.7653 161.288 41.5299V46.5886H159.053V36.9418H158.935Z" fill="#414042"/>
<path d="M171.876 44.7064L167.523 36.9419H170.111L173.052 42.4711L175.758 36.9419H178.229L170.582 51.765H167.994L171.876 44.7064Z" fill="#414042"/>
<defs>
<radialGradient id="paint0_radial_1781_6725" cx="0" cy="0" r="1" gradientUnits="userSpaceOnUse" gradientTransform="translate(19.9055 15.7058) scale(53.4709)">
<stop offset="0.475" stop-color="#4388DD"/>
<stop offset="0.9988" stop-color="#FF4581"/>
</radialGradient>
<radialGradient id="paint1_radial_1781_6725" cx="0" cy="0" r="1" gradientUnits="userSpaceOnUse" gradientTransform="translate(19.9057 15.7056) scale(53.4709)">
<stop offset="0.475" stop-color="#4388DD"/>
<stop offset="0.9988" stop-color="#FF4581"/>
</radialGradient>
</defs>
</svg>
